<?xml version="1.0" encoding="UTF-8"?>
<svg width="180px" height="155px" viewBox="0 0 180 155" version="1.1" xmlns="http://www.w3.org/2000/svg" xmlns:xlink="http://www.w3.org/1999/xlink">
    <title>Group</title>
    <defs>
        <filter x="-7.4%" y="-8.8%" width="114.8%" height="117.5%" filterUnits="objectBoundingBox" id="filter-1">
            <feOffset dx="0" dy="2" in="SourceAlpha" result="shadowOffsetOuter1"></feOffset>
            <feGaussianBlur stdDeviation="2" in="shadowOffsetOuter1" result="shadowBlurOuter1"></feGaussianBlur>
            <feColorMatrix values="0 0 0 0 0   0 0 0 0 0   0 0 0 0 0  0 0 0 0.5 0" type="matrix" in="shadowBlurOuter1" result="shadowMatrixOuter1"></feColorMatrix>
            <feMerge>
                <feMergeNode in="shadowMatrixOuter1"></feMergeNode>
                <feMergeNode in="SourceGraphic"></feMergeNode>
            </feMerge>
        </filter>
    </defs>
    <g id="Page-1" stroke="none" stroke-width="1" fill="none" fill-rule="evenodd">
        <g id="Landing" transform="translate(-117.000000, -109.000000)" fill="#FFFFFF">
            <g id="Group" filter="url(#filter-1)" transform="translate(126.000000, 118.000000)">
                <g id="Bitrise-Logo" transform="translate(0.000000, 28.000000)">
                    <path d="M81.1515689,79.1547619 C73.5242648,79.1547619 67.3411131,73.1709263 67.3411131,65.789491 L94.9646832,65.789491 C94.9646832,73.1709263 88.7815315,79.1547619 81.1542273,79.1547619 L81.1515689,79.1547619 Z M40.2318095,44.1190481 C37.2455875,44.1181519 34.3814573,45.2600702 32.2702084,47.2933099 C30.1589595,49.3265496 28.9737523,52.0843486 28.9756119,54.9593354 L51.4809894,54.9593354 C51.4809894,48.9761405 46.4429896,44.1258027 40.2283018,44.1258027 M121.771703,44.1258027 C115.559754,44.1276667 110.524459,48.9754008 110.522523,54.9559584 L133.02439,54.9559584 C133.022453,48.9740824 127.985021,44.1258027 121.771703,44.1258027" id="Shape"></path>
                    <path d="M147.714691,92.4952357 C145.488982,94.972157 142.342724,96.4513271 138.99461,96.5948615 C125.091021,97.2358565 103.74329,98.0002516 81.0017336,98.0002516 C58.2567098,98.0002516 36.9124466,97.2358565 23.0088573,96.5948615 C19.6603184,96.4500569 16.514125,94.9696808 14.2887758,92.4918079 C12.0553107,90.0354546 10.92441,86.7889516 11.1544005,83.4938835 C11.8894531,72.4975628 12.8810807,62.7626655 14.1015454,54.5599862 C15.9149063,42.3845089 18.6436157,30.0273594 20.6095347,21.8006856 C21.8483409,16.5158189 26.4622477,12.6704426 31.9404399,12.3571496 C42.0231425,11.7367213 58.7178513,10.9963206 81.0017336,10.9963206 C103.282149,10.9963206 119.980325,11.7367213 130.063027,12.3571496 C135.539905,12.6719143 140.152026,16.5169789 141.390465,21.8006856 C143.363319,30.0273594 146.088561,42.3913645 147.898455,54.5599862 C149.122387,62.7626655 150.114014,72.4975628 150.845599,83.4904557 C151.07764,86.7872514 149.94799,90.0362291 147.714691,92.4952357 M158.90344,52.9557848 C157.031136,40.4032517 154.23655,27.7067518 152.215155,19.2675556 C149.865645,9.25938025 141.127923,1.97752361 130.753006,1.38139564 C120.514278,0.754111765 103.569929,0 80.9982664,0 C58.4335385,0 41.4891892,0.754111765 31.2504612,1.38139564 C20.8750953,1.97640958 12.1367878,9.25875425 9.78831223,19.2675556 C7.76691758,27.703324 4.96886358,40.3963961 3.09655979,52.9557848 C1.83102112,61.4498255 0.808188493,71.4795119 0.0557997478,82.7706217 C-0.381018959,89.0128254 1.76074352,95.1634112 5.99169621,99.8169754 C10.2011507,104.505227 16.1537665,107.305435 22.4887729,107.577471 C36.510248,108.228749 58.0417416,109 81.0017336,109 C103.954791,109 125.489752,108.225322 139.514694,107.577471 C145.848577,107.304909 151.799919,104.504712 156.008304,99.8169754 C160.239256,95.1634112 162.381019,89.0128254 161.9442,82.7706217 C161.191812,71.4795119 160.168979,61.4498255 158.90344,52.9557848" id="Shape"></path>
                </g>
                <g id="binoculars" transform="translate(9.000000, 34.000000)" fill-rule="nonzero">
                    <path d="M143.034714,29.4611103 C143.01039,29.4154696 142.999334,29.3629828 142.97501,29.3173421 C142.968376,29.3036498 142.948475,29.2671373 142.935207,29.246599 C142.061764,27.2908948 141.024687,25.4333181 139.82619,23.6966892 C134.819919,14.8058799 135.738385,13.4922705 131.037267,6.81731743 C127.17495,1.33586877 108.736027,-0.66710715 75.7204969,0.808389683 C73.4534161,0.808389683 20.3050033,-1.4071376 14.5093168,6.81731743 C9.80819903,13.4922705 11.1822918,14.808162 6.17381032,23.6966892 C4.97531276,25.4356001 3.93823645,27.2908948 3.06479266,29.246599 C3.05373641,29.2671373 3.03383516,29.3036498 3.02499016,29.3173421 C3.0006664,29.3629828 2.98961015,29.4131875 2.9652864,29.4611103 C1.07687881,33.7741569 0,38.5436106 0,43.5777803 C0,62.5574675 14.9635295,78 33.3544967,78 C44.116651,78 53.6780965,72.689704 59.7789356,64.4971974 L86.2210644,64.4971974 C92.3241147,72.689704 101.883349,78 112.645503,78 C131.03647,78 146,62.5574675 146,43.5777803 C146,38.5436106 144.923121,33.7741569 143.034714,29.4611103 Z M33.3544967,66.5898238 C21.0577348,66.5898238 11.0562506,56.2658963 11.0562506,43.5777803 C11.0562506,30.8896643 21.0577348,20.5680189 33.3544967,20.5680189 C45.6490473,20.5680189 55.6505316,30.8896643 55.6505316,43.5777803 C55.6505316,56.2658963 45.6490473,66.5898238 33.3544967,66.5898238 Z M112.645503,66.5898238 C100.350953,66.5898238 90.3494684,56.2681783 90.3494684,43.5777803 C90.3494684,30.8896643 100.350953,20.5680189 112.645503,20.5680189 C124.942265,20.5680189 134.943749,30.8896643 134.943749,43.5777803 C134.943749,56.2658963 124.942265,66.5898238 112.645503,66.5898238 Z" id="Shape"></path>
                </g>
                <circle id="Oval" cx="82" cy="8" r="8"></circle>
            </g>
        </g>
    </g>
</svg>